G04 Layer: BottomLayer*
G04 EasyEDA v6.1.34, Sat, 04 May 2019 03:32:15 GMT*
G04 a282187419204f9284f90a9f3713dfcb,c51538707a8b4a26ae849ea9e5911ac7,10*
G04 Gerber Generator version 0.2*
G04 Scale: 100 percent, Rotated: No, Reflected: No *
G04 Dimensions in millimeters *
G04 leading zeros omitted , absolute positions ,3 integer and 3 decimal *
%FSLAX33Y33*%
%MOMM*%
G90*
G71D02*

%ADD11C,0.159995*%
%ADD15C,0.610006*%

%LPD*%
G36*
G01X32918Y32623D02*
G01X29103Y32623D01*
G01X482Y32512D01*
G01X467Y32511D01*
G01X453Y32508D01*
G01X440Y32503D01*
G01X427Y32496D01*
G01X415Y32487D01*
G01X405Y32477D01*
G01X397Y32465D01*
G01X390Y32452D01*
G01X385Y32439D01*
G01X382Y32425D01*
G01X381Y32410D01*
G01X381Y19557D01*
G01X508Y9652D01*
G01X507Y370D01*
G01X509Y356D01*
G01X512Y342D01*
G01X517Y328D01*
G01X524Y315D01*
G01X532Y304D01*
G01X543Y294D01*
G01X554Y285D01*
G01X567Y278D01*
G01X580Y273D01*
G01X595Y270D01*
G01X609Y269D01*
G01X32918Y269D01*
G01X32932Y270D01*
G01X32947Y273D01*
G01X32960Y278D01*
G01X32973Y285D01*
G01X32984Y294D01*
G01X32995Y304D01*
G01X33003Y315D01*
G01X33010Y328D01*
G01X33015Y342D01*
G01X33018Y356D01*
G01X33020Y370D01*
G01X33020Y32522D01*
G01X33018Y32536D01*
G01X33015Y32550D01*
G01X33010Y32564D01*
G01X33003Y32577D01*
G01X32995Y32588D01*
G01X32984Y32598D01*
G01X32973Y32607D01*
G01X32960Y32614D01*
G01X32947Y32619D01*
G01X32932Y32622D01*
G01X32918Y32623D01*
G37*

%LPC*%
G36*
G01X25626Y16211D02*
G01X25593Y16213D01*
G01X25559Y16211D01*
G01X25525Y16208D01*
G01X25491Y16203D01*
G01X25458Y16196D01*
G01X25425Y16187D01*
G01X25393Y16176D01*
G01X25362Y16163D01*
G01X25332Y16148D01*
G01X25302Y16132D01*
G01X25274Y16113D01*
G01X25246Y16093D01*
G01X25220Y16071D01*
G01X25195Y16048D01*
G01X25172Y16023D01*
G01X25151Y15997D01*
G01X25130Y15970D01*
G01X25112Y15941D01*
G01X25095Y15912D01*
G01X25080Y15881D01*
G01X25067Y15850D01*
G01X25056Y15818D01*
G01X25047Y15785D01*
G01X25040Y15752D01*
G01X25035Y15719D01*
G01X25032Y15685D01*
G01X25031Y15651D01*
G01X25032Y15617D01*
G01X25035Y15583D01*
G01X25040Y15550D01*
G01X25047Y15517D01*
G01X25056Y15484D01*
G01X25067Y15452D01*
G01X25080Y15421D01*
G01X25095Y15390D01*
G01X25112Y15360D01*
G01X25130Y15332D01*
G01X25151Y15305D01*
G01X25172Y15279D01*
G01X25195Y15254D01*
G01X25220Y15231D01*
G01X25246Y15209D01*
G01X25274Y15189D01*
G01X25302Y15170D01*
G01X25332Y15154D01*
G01X25362Y15139D01*
G01X25393Y15126D01*
G01X25425Y15115D01*
G01X25458Y15106D01*
G01X25491Y15099D01*
G01X25525Y15094D01*
G01X25559Y15090D01*
G01X25593Y15089D01*
G01X25628Y15091D01*
G01X25635Y15091D01*
G01X25651Y15090D01*
G01X25666Y15086D01*
G01X25681Y15080D01*
G01X25694Y15071D01*
G01X25707Y15061D01*
G01X27399Y13368D01*
G01X27410Y13356D01*
G01X27418Y13343D01*
G01X27424Y13328D01*
G01X27428Y13312D01*
G01X27429Y13297D01*
G01X27428Y13281D01*
G01X27424Y13265D01*
G01X27418Y13250D01*
G01X27409Y13237D01*
G01X27399Y13225D01*
G01X25609Y11436D01*
G01X25591Y11417D01*
G01X25574Y11396D01*
G01X25560Y11374D01*
G01X25547Y11351D01*
G01X25536Y11327D01*
G01X25526Y11302D01*
G01X25519Y11277D01*
G01X25514Y11251D01*
G01X25511Y11225D01*
G01X25510Y11198D01*
G01X25510Y9588D01*
G01X25509Y9573D01*
G01X25506Y9559D01*
G01X25501Y9546D01*
G01X25494Y9533D01*
G01X25485Y9521D01*
G01X25475Y9511D01*
G01X25463Y9502D01*
G01X25451Y9496D01*
G01X25437Y9490D01*
G01X25423Y9487D01*
G01X25408Y9486D01*
G01X25394Y9487D01*
G01X25379Y9491D01*
G01X25366Y9496D01*
G01X25353Y9503D01*
G01X25341Y9512D01*
G01X25331Y9522D01*
G01X25323Y9533D01*
G01X25316Y9546D01*
G01X25311Y9560D01*
G01X25308Y9574D01*
G01X25307Y9588D01*
G01X25307Y12692D01*
G01X25306Y12718D01*
G01X25303Y12745D01*
G01X25297Y12770D01*
G01X25290Y12796D01*
G01X25281Y12821D01*
G01X25270Y12845D01*
G01X25257Y12868D01*
G01X25243Y12890D01*
G01X25226Y12910D01*
G01X25208Y12930D01*
G01X24404Y13734D01*
G01X24394Y13746D01*
G01X24386Y13759D01*
G01X24380Y13774D01*
G01X24376Y13790D01*
G01X24375Y13805D01*
G01X24375Y13812D01*
G01X24376Y13848D01*
G01X24375Y13881D01*
G01X24372Y13915D01*
G01X24367Y13949D01*
G01X24360Y13982D01*
G01X24351Y14015D01*
G01X24340Y14047D01*
G01X24327Y14078D01*
G01X24312Y14109D01*
G01X24295Y14138D01*
G01X24277Y14167D01*
G01X24257Y14194D01*
G01X24235Y14220D01*
G01X24212Y14245D01*
G01X24187Y14268D01*
G01X24161Y14290D01*
G01X24134Y14310D01*
G01X24105Y14328D01*
G01X24076Y14345D01*
G01X24045Y14360D01*
G01X24014Y14373D01*
G01X23982Y14384D01*
G01X23949Y14393D01*
G01X23916Y14400D01*
G01X23882Y14405D01*
G01X23848Y14408D01*
G01X23815Y14409D01*
G01X23781Y14408D01*
G01X23747Y14405D01*
G01X23713Y14400D01*
G01X23680Y14393D01*
G01X23647Y14384D01*
G01X23615Y14373D01*
G01X23584Y14360D01*
G01X23554Y14345D01*
G01X23524Y14328D01*
G01X23496Y14310D01*
G01X23468Y14290D01*
G01X23442Y14268D01*
G01X23417Y14245D01*
G01X23394Y14220D01*
G01X23373Y14194D01*
G01X23352Y14167D01*
G01X23334Y14138D01*
G01X23317Y14109D01*
G01X23302Y14078D01*
G01X23289Y14047D01*
G01X23278Y14015D01*
G01X23269Y13982D01*
G01X23262Y13949D01*
G01X23257Y13915D01*
G01X23254Y13881D01*
G01X23253Y13848D01*
G01X23254Y13814D01*
G01X23257Y13780D01*
G01X23262Y13746D01*
G01X23269Y13713D01*
G01X23278Y13681D01*
G01X23289Y13648D01*
G01X23302Y13617D01*
G01X23317Y13587D01*
G01X23334Y13557D01*
G01X23352Y13529D01*
G01X23373Y13501D01*
G01X23394Y13475D01*
G01X23417Y13451D01*
G01X23442Y13427D01*
G01X23468Y13406D01*
G01X23496Y13385D01*
G01X23524Y13367D01*
G01X23554Y13350D01*
G01X23584Y13336D01*
G01X23615Y13323D01*
G01X23647Y13311D01*
G01X23680Y13302D01*
G01X23713Y13295D01*
G01X23747Y13290D01*
G01X23781Y13287D01*
G01X23815Y13286D01*
G01X23850Y13287D01*
G01X23857Y13287D01*
G01X23873Y13286D01*
G01X23888Y13282D01*
G01X23903Y13276D01*
G01X23916Y13268D01*
G01X23929Y13258D01*
G01X24604Y12582D01*
G01X24614Y12570D01*
G01X24623Y12557D01*
G01X24629Y12542D01*
G01X24632Y12526D01*
G01X24634Y12510D01*
G01X24634Y9588D01*
G01X24633Y9574D01*
G01X24630Y9560D01*
G01X24625Y9546D01*
G01X24618Y9533D01*
G01X24609Y9522D01*
G01X24599Y9512D01*
G01X24574Y9488D01*
G01X24551Y9464D01*
G01X24529Y9438D01*
G01X24509Y9410D01*
G01X24490Y9382D01*
G01X24474Y9352D01*
G01X24459Y9321D01*
G01X24445Y9290D01*
G01X24434Y9258D01*
G01X24425Y9225D01*
G01X24418Y9192D01*
G01X24413Y9158D01*
G01X24410Y9124D01*
G01X24409Y9090D01*
G01X24410Y9056D01*
G01X24413Y9022D01*
G01X24418Y8989D01*
G01X24425Y8956D01*
G01X24434Y8923D01*
G01X24445Y8891D01*
G01X24458Y8860D01*
G01X24473Y8829D01*
G01X24490Y8800D01*
G01X24508Y8771D01*
G01X24528Y8744D01*
G01X24550Y8718D01*
G01X24573Y8693D01*
G01X24598Y8670D01*
G01X24624Y8648D01*
G01X24651Y8628D01*
G01X24680Y8610D01*
G01X24709Y8593D01*
G01X24740Y8578D01*
G01X24771Y8565D01*
G01X24803Y8554D01*
G01X24836Y8545D01*
G01X24869Y8538D01*
G01X24903Y8533D01*
G01X24936Y8530D01*
G01X24970Y8529D01*
G01X25005Y8530D01*
G01X25039Y8533D01*
G01X25073Y8538D01*
G01X25107Y8546D01*
G01X25140Y8555D01*
G01X25173Y8566D01*
G01X25205Y8580D01*
G01X25236Y8595D01*
G01X25251Y8602D01*
G01X25267Y8606D01*
G01X25284Y8607D01*
G01X25298Y8606D01*
G01X25313Y8603D01*
G01X25326Y8598D01*
G01X25339Y8591D01*
G01X25351Y8582D01*
G01X25361Y8571D01*
G01X25370Y8560D01*
G01X25390Y8530D01*
G01X25411Y8502D01*
G01X25435Y8475D01*
G01X25460Y8450D01*
G01X25486Y8426D01*
G01X25514Y8404D01*
G01X25543Y8384D01*
G01X25574Y8366D01*
G01X25606Y8349D01*
G01X25638Y8335D01*
G01X25672Y8323D01*
G01X25706Y8313D01*
G01X25740Y8305D01*
G01X25776Y8299D01*
G01X25811Y8296D01*
G01X25847Y8295D01*
G01X25880Y8296D01*
G01X25914Y8299D01*
G01X25948Y8304D01*
G01X25981Y8311D01*
G01X26014Y8320D01*
G01X26046Y8331D01*
G01X26077Y8344D01*
G01X26108Y8359D01*
G01X26137Y8376D01*
G01X26166Y8394D01*
G01X26193Y8414D01*
G01X26219Y8436D01*
G01X26244Y8459D01*
G01X26267Y8484D01*
G01X26289Y8510D01*
G01X26309Y8537D01*
G01X26327Y8566D01*
G01X26344Y8596D01*
G01X26359Y8626D01*
G01X26372Y8657D01*
G01X26383Y8689D01*
G01X26392Y8722D01*
G01X26399Y8755D01*
G01X26404Y8789D01*
G01X26407Y8823D01*
G01X26408Y8856D01*
G01X26407Y8891D01*
G01X26404Y8924D01*
G01X26399Y8958D01*
G01X26392Y8991D01*
G01X26382Y9024D01*
G01X26371Y9056D01*
G01X26358Y9088D01*
G01X26343Y9118D01*
G01X26326Y9148D01*
G01X26308Y9177D01*
G01X26288Y9204D01*
G01X26266Y9230D01*
G01X26242Y9255D01*
G01X26218Y9278D01*
G01X26207Y9288D01*
G01X26199Y9300D01*
G01X26192Y9312D01*
G01X26187Y9326D01*
G01X26184Y9340D01*
G01X26183Y9354D01*
G01X26183Y11017D01*
G01X26184Y11033D01*
G01X26188Y11048D01*
G01X26194Y11063D01*
G01X26203Y11076D01*
G01X26213Y11089D01*
G01X27912Y12786D01*
G01X27924Y12796D01*
G01X27938Y12804D01*
G01X27952Y12810D01*
G01X27968Y12814D01*
G01X27984Y12815D01*
G01X28000Y12814D01*
G01X28017Y12810D01*
G01X28032Y12803D01*
G01X28063Y12787D01*
G01X28095Y12774D01*
G01X28128Y12762D01*
G01X28162Y12752D01*
G01X28196Y12745D01*
G01X28231Y12739D01*
G01X28265Y12736D01*
G01X28300Y12735D01*
G01X28334Y12736D01*
G01X28368Y12739D01*
G01X28401Y12744D01*
G01X28435Y12751D01*
G01X28467Y12760D01*
G01X28499Y12771D01*
G01X28531Y12784D01*
G01X28561Y12799D01*
G01X28591Y12816D01*
G01X28619Y12834D01*
G01X28646Y12854D01*
G01X28673Y12876D01*
G01X28697Y12899D01*
G01X28721Y12924D01*
G01X28742Y12950D01*
G01X28762Y12977D01*
G01X28781Y13006D01*
G01X28797Y13035D01*
G01X28812Y13066D01*
G01X28825Y13097D01*
G01X28836Y13129D01*
G01X28845Y13162D01*
G01X28853Y13195D01*
G01X28858Y13229D01*
G01X28861Y13262D01*
G01X28862Y13296D01*
G01X28861Y13330D01*
G01X28858Y13364D01*
G01X28853Y13398D01*
G01X28845Y13431D01*
G01X28836Y13463D01*
G01X28825Y13496D01*
G01X28812Y13527D01*
G01X28797Y13557D01*
G01X28781Y13587D01*
G01X28762Y13615D01*
G01X28742Y13643D01*
G01X28721Y13669D01*
G01X28673Y13717D01*
G01X28619Y13759D01*
G01X28591Y13777D01*
G01X28561Y13794D01*
G01X28531Y13808D01*
G01X28499Y13821D01*
G01X28467Y13833D01*
G01X28435Y13842D01*
G01X28401Y13849D01*
G01X28368Y13854D01*
G01X28334Y13857D01*
G01X28300Y13858D01*
G01X28265Y13857D01*
G01X28231Y13854D01*
G01X28196Y13848D01*
G01X28162Y13841D01*
G01X28128Y13831D01*
G01X28096Y13819D01*
G01X28064Y13806D01*
G01X28032Y13790D01*
G01X28017Y13783D01*
G01X28001Y13779D01*
G01X27984Y13778D01*
G01X27968Y13779D01*
G01X27952Y13783D01*
G01X27938Y13789D01*
G01X27924Y13797D01*
G01X27912Y13807D01*
G01X26182Y15537D01*
G01X26172Y15549D01*
G01X26164Y15563D01*
G01X26158Y15577D01*
G01X26154Y15593D01*
G01X26153Y15609D01*
G01X26153Y15615D01*
G01X26154Y15651D01*
G01X26153Y15685D01*
G01X26150Y15719D01*
G01X26145Y15752D01*
G01X26138Y15785D01*
G01X26129Y15818D01*
G01X26118Y15850D01*
G01X26105Y15881D01*
G01X26090Y15912D01*
G01X26073Y15941D01*
G01X26055Y15970D01*
G01X26035Y15997D01*
G01X26013Y16023D01*
G01X25990Y16048D01*
G01X25965Y16071D01*
G01X25939Y16093D01*
G01X25912Y16113D01*
G01X25883Y16132D01*
G01X25854Y16148D01*
G01X25823Y16163D01*
G01X25792Y16176D01*
G01X25760Y16187D01*
G01X25727Y16196D01*
G01X25694Y16203D01*
G01X25660Y16208D01*
G01X25626Y16211D01*
G37*
G36*
G01X23871Y12744D02*
G01X23837Y12745D01*
G01X23803Y12744D01*
G01X23770Y12741D01*
G01X23736Y12736D01*
G01X23703Y12729D01*
G01X23670Y12720D01*
G01X23638Y12709D01*
G01X23607Y12696D01*
G01X23576Y12681D01*
G01X23547Y12664D01*
G01X23518Y12646D01*
G01X23491Y12626D01*
G01X23465Y12604D01*
G01X23440Y12581D01*
G01X23417Y12556D01*
G01X23395Y12530D01*
G01X23375Y12503D01*
G01X23357Y12474D01*
G01X23340Y12445D01*
G01X23325Y12414D01*
G01X23312Y12383D01*
G01X23301Y12351D01*
G01X23292Y12318D01*
G01X23285Y12285D01*
G01X23280Y12252D01*
G01X23277Y12218D01*
G01X23276Y12184D01*
G01X23277Y12148D01*
G01X23277Y12142D01*
G01X23276Y12126D01*
G01X23272Y12110D01*
G01X23266Y12096D01*
G01X23258Y12082D01*
G01X23247Y12070D01*
G01X18517Y7339D01*
G01X18497Y7318D01*
G01X18479Y7295D01*
G01X18464Y7270D01*
G01X18450Y7244D01*
G01X18439Y7217D01*
G01X18430Y7189D01*
G01X18424Y7161D01*
G01X18420Y7132D01*
G01X18417Y7117D01*
G01X18412Y7102D01*
G01X18405Y7088D01*
G01X18396Y7075D01*
G01X18385Y7064D01*
G01X18360Y7041D01*
G01X18337Y7016D01*
G01X18315Y6990D01*
G01X18294Y6963D01*
G01X18276Y6934D01*
G01X18259Y6905D01*
G01X18244Y6874D01*
G01X18230Y6842D01*
G01X18219Y6810D01*
G01X18210Y6777D01*
G01X18203Y6744D01*
G01X18197Y6710D01*
G01X18194Y6676D01*
G01X18193Y6642D01*
G01X18194Y6608D01*
G01X18197Y6574D01*
G01X18203Y6540D01*
G01X18210Y6507D01*
G01X18219Y6475D01*
G01X18230Y6442D01*
G01X18243Y6411D01*
G01X18258Y6381D01*
G01X18274Y6351D01*
G01X18293Y6323D01*
G01X18313Y6295D01*
G01X18335Y6269D01*
G01X18358Y6245D01*
G01X18382Y6221D01*
G01X18436Y6179D01*
G01X18464Y6161D01*
G01X18494Y6144D01*
G01X18524Y6130D01*
G01X18556Y6117D01*
G01X18588Y6105D01*
G01X18620Y6096D01*
G01X18654Y6089D01*
G01X18687Y6084D01*
G01X18721Y6081D01*
G01X18755Y6080D01*
G01X18789Y6081D01*
G01X18823Y6084D01*
G01X18856Y6089D01*
G01X18889Y6096D01*
G01X18922Y6105D01*
G01X18954Y6117D01*
G01X18985Y6130D01*
G01X19016Y6144D01*
G01X19045Y6161D01*
G01X19074Y6179D01*
G01X19101Y6200D01*
G01X19127Y6221D01*
G01X19152Y6245D01*
G01X19175Y6269D01*
G01X19197Y6295D01*
G01X19217Y6323D01*
G01X19235Y6351D01*
G01X19252Y6381D01*
G01X19267Y6411D01*
G01X19280Y6442D01*
G01X19291Y6475D01*
G01X19300Y6507D01*
G01X19307Y6540D01*
G01X19312Y6574D01*
G01X19315Y6608D01*
G01X19316Y6642D01*
G01X19315Y6676D01*
G01X19312Y6710D01*
G01X19307Y6744D01*
G01X19300Y6778D01*
G01X19290Y6811D01*
G01X19279Y6844D01*
G01X19265Y6876D01*
G01X19250Y6907D01*
G01X19233Y6936D01*
G01X19214Y6965D01*
G01X19206Y6979D01*
G01X19200Y6993D01*
G01X19196Y7008D01*
G01X19195Y7024D01*
G01X19196Y7040D01*
G01X19200Y7055D01*
G01X19206Y7070D01*
G01X19215Y7083D01*
G01X19225Y7096D01*
G01X23723Y11594D01*
G01X23735Y11604D01*
G01X23749Y11613D01*
G01X23764Y11619D01*
G01X23779Y11622D01*
G01X23795Y11624D01*
G01X23802Y11623D01*
G01X23837Y11622D01*
G01X23871Y11623D01*
G01X23905Y11626D01*
G01X23939Y11632D01*
G01X23972Y11639D01*
G01X24004Y11648D01*
G01X24037Y11659D01*
G01X24068Y11672D01*
G01X24098Y11687D01*
G01X24128Y11703D01*
G01X24156Y11722D01*
G01X24184Y11742D01*
G01X24210Y11764D01*
G01X24234Y11787D01*
G01X24258Y11812D01*
G01X24279Y11838D01*
G01X24300Y11865D01*
G01X24318Y11893D01*
G01X24335Y11923D01*
G01X24349Y11953D01*
G01X24362Y11985D01*
G01X24374Y12017D01*
G01X24383Y12049D01*
G01X24390Y12083D01*
G01X24395Y12116D01*
G01X24398Y12150D01*
G01X24399Y12184D01*
G01X24398Y12218D01*
G01X24395Y12252D01*
G01X24390Y12285D01*
G01X24383Y12318D01*
G01X24374Y12351D01*
G01X24362Y12383D01*
G01X24349Y12414D01*
G01X24335Y12445D01*
G01X24318Y12474D01*
G01X24300Y12503D01*
G01X24279Y12530D01*
G01X24258Y12556D01*
G01X24234Y12581D01*
G01X24210Y12604D01*
G01X24184Y12626D01*
G01X24156Y12646D01*
G01X24128Y12664D01*
G01X24098Y12681D01*
G01X24068Y12696D01*
G01X24037Y12709D01*
G01X24004Y12720D01*
G01X23972Y12729D01*
G01X23939Y12736D01*
G01X23905Y12741D01*
G01X23871Y12744D01*
G37*
G36*
G01X28227Y16765D02*
G01X28194Y16766D01*
G01X28160Y16765D01*
G01X28126Y16762D01*
G01X28092Y16757D01*
G01X28059Y16750D01*
G01X28026Y16741D01*
G01X27994Y16730D01*
G01X27963Y16717D01*
G01X27933Y16702D01*
G01X27903Y16685D01*
G01X27875Y16667D01*
G01X27847Y16647D01*
G01X27821Y16625D01*
G01X27796Y16602D01*
G01X27773Y16577D01*
G01X27751Y16551D01*
G01X27731Y16524D01*
G01X27713Y16495D01*
G01X27696Y16466D01*
G01X27681Y16435D01*
G01X27668Y16404D01*
G01X27657Y16372D01*
G01X27648Y16339D01*
G01X27641Y16306D01*
G01X27636Y16272D01*
G01X27633Y16239D01*
G01X27632Y16205D01*
G01X27633Y16171D01*
G01X27636Y16137D01*
G01X27641Y16103D01*
G01X27648Y16070D01*
G01X27657Y16038D01*
G01X27668Y16006D01*
G01X27681Y15974D01*
G01X27696Y15944D01*
G01X27713Y15914D01*
G01X27731Y15886D01*
G01X27751Y15858D01*
G01X27773Y15832D01*
G01X27796Y15808D01*
G01X27821Y15784D01*
G01X27847Y15763D01*
G01X27875Y15743D01*
G01X27903Y15724D01*
G01X27933Y15707D01*
G01X27963Y15693D01*
G01X27994Y15680D01*
G01X28026Y15669D01*
G01X28059Y15659D01*
G01X28092Y15652D01*
G01X28126Y15647D01*
G01X28160Y15644D01*
G01X28194Y15643D01*
G01X28229Y15644D01*
G01X28236Y15645D01*
G01X28252Y15643D01*
G01X28267Y15640D01*
G01X28282Y15633D01*
G01X28296Y15625D01*
G01X28308Y15615D01*
G01X31114Y12811D01*
G01X31124Y12799D01*
G01X31133Y12785D01*
G01X31139Y12770D01*
G01X31142Y12755D01*
G01X31144Y12739D01*
G01X31144Y11843D01*
G01X31143Y11829D01*
G01X31140Y11815D01*
G01X31135Y11802D01*
G01X31128Y11789D01*
G01X31119Y11777D01*
G01X31109Y11767D01*
G01X31084Y11744D01*
G01X31061Y11719D01*
G01X31039Y11693D01*
G01X31019Y11666D01*
G01X31000Y11637D01*
G01X30984Y11608D01*
G01X30969Y11577D01*
G01X30955Y11546D01*
G01X30944Y11513D01*
G01X30935Y11481D01*
G01X30928Y11447D01*
G01X30923Y11414D01*
G01X30920Y11380D01*
G01X30919Y11346D01*
G01X30920Y11312D01*
G01X30923Y11278D01*
G01X30928Y11244D01*
G01X30935Y11211D01*
G01X30944Y11179D01*
G01X30955Y11147D01*
G01X30968Y11115D01*
G01X30983Y11085D01*
G01X31000Y11055D01*
G01X31018Y11027D01*
G01X31038Y10999D01*
G01X31060Y10973D01*
G01X31083Y10949D01*
G01X31108Y10925D01*
G01X31134Y10904D01*
G01X31161Y10884D01*
G01X31190Y10865D01*
G01X31219Y10848D01*
G01X31250Y10834D01*
G01X31281Y10821D01*
G01X31313Y10810D01*
G01X31346Y10800D01*
G01X31379Y10793D01*
G01X31413Y10788D01*
G01X31446Y10785D01*
G01X31480Y10784D01*
G01X31514Y10785D01*
G01X31548Y10788D01*
G01X31581Y10793D01*
G01X31615Y10800D01*
G01X31647Y10810D01*
G01X31679Y10821D01*
G01X31711Y10834D01*
G01X31741Y10848D01*
G01X31771Y10865D01*
G01X31799Y10884D01*
G01X31827Y10904D01*
G01X31853Y10925D01*
G01X31901Y10973D01*
G01X31922Y10999D01*
G01X31942Y11027D01*
G01X31961Y11055D01*
G01X31977Y11085D01*
G01X31992Y11115D01*
G01X32005Y11147D01*
G01X32016Y11179D01*
G01X32025Y11211D01*
G01X32033Y11244D01*
G01X32038Y11278D01*
G01X32041Y11312D01*
G01X32042Y11346D01*
G01X32041Y11380D01*
G01X32038Y11414D01*
G01X32033Y11447D01*
G01X32025Y11481D01*
G01X32016Y11513D01*
G01X32005Y11546D01*
G01X31992Y11577D01*
G01X31977Y11608D01*
G01X31960Y11637D01*
G01X31942Y11666D01*
G01X31921Y11693D01*
G01X31900Y11719D01*
G01X31876Y11744D01*
G01X31851Y11767D01*
G01X31841Y11777D01*
G01X31833Y11789D01*
G01X31826Y11802D01*
G01X31821Y11815D01*
G01X31818Y11829D01*
G01X31817Y11843D01*
G01X31817Y12920D01*
G01X31816Y12947D01*
G01X31813Y12973D01*
G01X31807Y12999D01*
G01X31800Y13025D01*
G01X31791Y13049D01*
G01X31780Y13073D01*
G01X31767Y13096D01*
G01X31752Y13118D01*
G01X31736Y13139D01*
G01X31718Y13159D01*
G01X28784Y16091D01*
G01X28773Y16103D01*
G01X28765Y16117D01*
G01X28759Y16131D01*
G01X28755Y16147D01*
G01X28754Y16163D01*
G01X28754Y16169D01*
G01X28755Y16205D01*
G01X28754Y16239D01*
G01X28751Y16272D01*
G01X28746Y16306D01*
G01X28739Y16339D01*
G01X28730Y16372D01*
G01X28719Y16404D01*
G01X28706Y16435D01*
G01X28691Y16466D01*
G01X28674Y16495D01*
G01X28656Y16524D01*
G01X28636Y16551D01*
G01X28614Y16577D01*
G01X28591Y16602D01*
G01X28566Y16625D01*
G01X28540Y16647D01*
G01X28512Y16667D01*
G01X28484Y16685D01*
G01X28454Y16702D01*
G01X28424Y16717D01*
G01X28393Y16730D01*
G01X28361Y16741D01*
G01X28328Y16750D01*
G01X28295Y16757D01*
G01X28261Y16762D01*
G01X28227Y16765D01*
G37*
G36*
G01X27697Y9153D02*
G01X27663Y9154D01*
G01X27629Y9153D01*
G01X27595Y9150D01*
G01X27561Y9145D01*
G01X27528Y9138D01*
G01X27496Y9128D01*
G01X27464Y9117D01*
G01X27432Y9104D01*
G01X27402Y9090D01*
G01X27372Y9073D01*
G01X27344Y9054D01*
G01X27316Y9034D01*
G01X27290Y9013D01*
G01X27242Y8965D01*
G01X27221Y8939D01*
G01X27200Y8911D01*
G01X27182Y8883D01*
G01X27165Y8853D01*
G01X27151Y8823D01*
G01X27138Y8791D01*
G01X27127Y8759D01*
G01X27117Y8727D01*
G01X27110Y8694D01*
G01X27105Y8660D01*
G01X27102Y8626D01*
G01X27101Y8592D01*
G01X27102Y8557D01*
G01X27102Y8550D01*
G01X27101Y8534D01*
G01X27097Y8519D01*
G01X27091Y8504D01*
G01X27083Y8490D01*
G01X27073Y8478D01*
G01X25579Y6985D01*
G01X25567Y6975D01*
G01X25554Y6966D01*
G01X25539Y6960D01*
G01X25523Y6957D01*
G01X25508Y6955D01*
G01X25283Y6955D01*
G01X25268Y6956D01*
G01X25254Y6959D01*
G01X25241Y6964D01*
G01X25228Y6971D01*
G01X25217Y6980D01*
G01X25206Y6990D01*
G01X25183Y7015D01*
G01X25158Y7038D01*
G01X25132Y7060D01*
G01X25105Y7080D01*
G01X25076Y7099D01*
G01X25047Y7115D01*
G01X25016Y7130D01*
G01X24985Y7144D01*
G01X24952Y7155D01*
G01X24920Y7164D01*
G01X24886Y7171D01*
G01X24853Y7176D01*
G01X24819Y7179D01*
G01X24785Y7180D01*
G01X24751Y7179D01*
G01X24717Y7176D01*
G01X24684Y7171D01*
G01X24650Y7164D01*
G01X24618Y7155D01*
G01X24586Y7144D01*
G01X24554Y7131D01*
G01X24524Y7116D01*
G01X24494Y7099D01*
G01X24466Y7081D01*
G01X24439Y7061D01*
G01X24412Y7039D01*
G01X24388Y7016D01*
G01X24364Y6991D01*
G01X24343Y6965D01*
G01X24323Y6938D01*
G01X24304Y6909D01*
G01X24288Y6880D01*
G01X24273Y6849D01*
G01X24260Y6818D01*
G01X24249Y6786D01*
G01X24240Y6753D01*
G01X24232Y6720D01*
G01X24227Y6686D01*
G01X24224Y6653D01*
G01X24223Y6619D01*
G01X24224Y6585D01*
G01X24227Y6551D01*
G01X24232Y6518D01*
G01X24240Y6484D01*
G01X24249Y6452D01*
G01X24260Y6420D01*
G01X24273Y6388D01*
G01X24288Y6358D01*
G01X24304Y6328D01*
G01X24323Y6300D01*
G01X24343Y6272D01*
G01X24364Y6246D01*
G01X24412Y6198D01*
G01X24439Y6177D01*
G01X24466Y6157D01*
G01X24494Y6138D01*
G01X24524Y6122D01*
G01X24554Y6107D01*
G01X24586Y6094D01*
G01X24618Y6083D01*
G01X24650Y6074D01*
G01X24684Y6066D01*
G01X24717Y6061D01*
G01X24751Y6058D01*
G01X24785Y6057D01*
G01X24819Y6058D01*
G01X24853Y6061D01*
G01X24886Y6066D01*
G01X24920Y6074D01*
G01X24952Y6083D01*
G01X24985Y6094D01*
G01X25016Y6107D01*
G01X25047Y6122D01*
G01X25076Y6139D01*
G01X25105Y6157D01*
G01X25132Y6178D01*
G01X25158Y6199D01*
G01X25183Y6223D01*
G01X25206Y6248D01*
G01X25217Y6258D01*
G01X25228Y6266D01*
G01X25241Y6273D01*
G01X25254Y6278D01*
G01X25268Y6281D01*
G01X25283Y6282D01*
G01X25689Y6282D01*
G01X25715Y6283D01*
G01X25742Y6286D01*
G01X25768Y6292D01*
G01X25793Y6299D01*
G01X25818Y6308D01*
G01X25842Y6319D01*
G01X25865Y6332D01*
G01X25887Y6346D01*
G01X25908Y6363D01*
G01X25927Y6381D01*
G01X27549Y8002D01*
G01X27561Y8013D01*
G01X27574Y8021D01*
G01X27589Y8027D01*
G01X27605Y8031D01*
G01X27620Y8032D01*
G01X27627Y8032D01*
G01X27663Y8031D01*
G01X27697Y8032D01*
G01X27730Y8035D01*
G01X27764Y8040D01*
G01X27797Y8047D01*
G01X27830Y8056D01*
G01X27862Y8067D01*
G01X27893Y8080D01*
G01X27924Y8095D01*
G01X27953Y8112D01*
G01X27982Y8130D01*
G01X28009Y8150D01*
G01X28035Y8172D01*
G01X28060Y8195D01*
G01X28083Y8220D01*
G01X28105Y8246D01*
G01X28125Y8273D01*
G01X28143Y8302D01*
G01X28160Y8331D01*
G01X28175Y8362D01*
G01X28188Y8393D01*
G01X28199Y8425D01*
G01X28208Y8458D01*
G01X28215Y8491D01*
G01X28220Y8525D01*
G01X28223Y8558D01*
G01X28224Y8592D01*
G01X28223Y8626D01*
G01X28220Y8660D01*
G01X28215Y8694D01*
G01X28208Y8727D01*
G01X28199Y8759D01*
G01X28188Y8791D01*
G01X28175Y8823D01*
G01X28160Y8853D01*
G01X28143Y8883D01*
G01X28125Y8911D01*
G01X28105Y8939D01*
G01X28083Y8965D01*
G01X28060Y8989D01*
G01X28035Y9013D01*
G01X28009Y9034D01*
G01X27982Y9054D01*
G01X27953Y9073D01*
G01X27924Y9090D01*
G01X27893Y9104D01*
G01X27862Y9117D01*
G01X27830Y9128D01*
G01X27797Y9138D01*
G01X27764Y9145D01*
G01X27730Y9150D01*
G01X27697Y9153D01*
G37*
G36*
G01X3107Y4422D02*
G01X3048Y4423D01*
G01X2988Y4422D01*
G01X2928Y4419D01*
G01X2868Y4414D01*
G01X2808Y4407D01*
G01X2749Y4397D01*
G01X2690Y4386D01*
G01X2632Y4373D01*
G01X2574Y4358D01*
G01X2516Y4341D01*
G01X2459Y4322D01*
G01X2403Y4301D01*
G01X2348Y4278D01*
G01X2293Y4253D01*
G01X2239Y4226D01*
G01X2187Y4198D01*
G01X2135Y4167D01*
G01X2084Y4135D01*
G01X2035Y4102D01*
G01X1986Y4066D01*
G01X1939Y4029D01*
G01X1893Y3990D01*
G01X1849Y3950D01*
G01X1805Y3909D01*
G01X1764Y3865D01*
G01X1724Y3821D01*
G01X1685Y3775D01*
G01X1648Y3728D01*
G01X1612Y3679D01*
G01X1579Y3630D01*
G01X1547Y3579D01*
G01X1516Y3527D01*
G01X1488Y3475D01*
G01X1461Y3421D01*
G01X1436Y3366D01*
G01X1413Y3311D01*
G01X1392Y3255D01*
G01X1373Y3198D01*
G01X1356Y3140D01*
G01X1341Y3082D01*
G01X1328Y3024D01*
G01X1317Y2965D01*
G01X1307Y2906D01*
G01X1300Y2846D01*
G01X1295Y2786D01*
G01X1292Y2726D01*
G01X1291Y2667D01*
G01X1292Y2607D01*
G01X1295Y2547D01*
G01X1300Y2487D01*
G01X1307Y2427D01*
G01X1317Y2368D01*
G01X1328Y2309D01*
G01X1341Y2251D01*
G01X1356Y2193D01*
G01X1373Y2135D01*
G01X1392Y2078D01*
G01X1413Y2022D01*
G01X1436Y1967D01*
G01X1461Y1912D01*
G01X1488Y1858D01*
G01X1516Y1806D01*
G01X1547Y1754D01*
G01X1579Y1703D01*
G01X1612Y1654D01*
G01X1648Y1605D01*
G01X1685Y1558D01*
G01X1724Y1512D01*
G01X1764Y1468D01*
G01X1805Y1424D01*
G01X1849Y1383D01*
G01X1893Y1343D01*
G01X1939Y1304D01*
G01X1986Y1267D01*
G01X2035Y1231D01*
G01X2084Y1198D01*
G01X2135Y1166D01*
G01X2187Y1135D01*
G01X2239Y1107D01*
G01X2293Y1080D01*
G01X2348Y1055D01*
G01X2403Y1032D01*
G01X2459Y1011D01*
G01X2516Y992D01*
G01X2574Y975D01*
G01X2632Y960D01*
G01X2690Y947D01*
G01X2749Y936D01*
G01X2808Y926D01*
G01X2868Y919D01*
G01X2928Y914D01*
G01X2988Y911D01*
G01X3048Y910D01*
G01X3107Y911D01*
G01X3167Y914D01*
G01X3227Y919D01*
G01X3287Y926D01*
G01X3346Y936D01*
G01X3405Y947D01*
G01X3463Y960D01*
G01X3521Y975D01*
G01X3579Y992D01*
G01X3636Y1011D01*
G01X3692Y1032D01*
G01X3747Y1055D01*
G01X3802Y1080D01*
G01X3856Y1107D01*
G01X3908Y1135D01*
G01X3960Y1166D01*
G01X4011Y1198D01*
G01X4060Y1231D01*
G01X4109Y1267D01*
G01X4156Y1304D01*
G01X4202Y1343D01*
G01X4246Y1383D01*
G01X4290Y1424D01*
G01X4331Y1468D01*
G01X4371Y1512D01*
G01X4410Y1558D01*
G01X4447Y1605D01*
G01X4483Y1654D01*
G01X4516Y1703D01*
G01X4548Y1754D01*
G01X4579Y1806D01*
G01X4607Y1858D01*
G01X4634Y1912D01*
G01X4659Y1967D01*
G01X4682Y2022D01*
G01X4703Y2078D01*
G01X4722Y2135D01*
G01X4739Y2193D01*
G01X4754Y2251D01*
G01X4767Y2309D01*
G01X4778Y2368D01*
G01X4788Y2427D01*
G01X4795Y2487D01*
G01X4800Y2547D01*
G01X4803Y2607D01*
G01X4804Y2667D01*
G01X4803Y2726D01*
G01X4800Y2786D01*
G01X4795Y2846D01*
G01X4788Y2906D01*
G01X4778Y2965D01*
G01X4767Y3024D01*
G01X4754Y3082D01*
G01X4739Y3140D01*
G01X4722Y3198D01*
G01X4703Y3255D01*
G01X4682Y3311D01*
G01X4659Y3366D01*
G01X4634Y3421D01*
G01X4607Y3475D01*
G01X4579Y3527D01*
G01X4548Y3579D01*
G01X4516Y3630D01*
G01X4483Y3679D01*
G01X4447Y3728D01*
G01X4410Y3775D01*
G01X4371Y3821D01*
G01X4331Y3865D01*
G01X4290Y3909D01*
G01X4246Y3950D01*
G01X4202Y3990D01*
G01X4156Y4029D01*
G01X4109Y4066D01*
G01X4060Y4102D01*
G01X4011Y4135D01*
G01X3960Y4167D01*
G01X3908Y4198D01*
G01X3856Y4226D01*
G01X3802Y4253D01*
G01X3747Y4278D01*
G01X3692Y4301D01*
G01X3636Y4322D01*
G01X3579Y4341D01*
G01X3521Y4358D01*
G01X3463Y4373D01*
G01X3405Y4386D01*
G01X3346Y4397D01*
G01X3287Y4407D01*
G01X3227Y4414D01*
G01X3167Y4419D01*
G01X3107Y4422D01*
G37*
G36*
G01X3107Y32235D02*
G01X3048Y32236D01*
G01X2988Y32235D01*
G01X2928Y32232D01*
G01X2868Y32227D01*
G01X2808Y32220D01*
G01X2749Y32210D01*
G01X2690Y32199D01*
G01X2632Y32186D01*
G01X2574Y32171D01*
G01X2516Y32154D01*
G01X2459Y32135D01*
G01X2403Y32114D01*
G01X2348Y32091D01*
G01X2293Y32066D01*
G01X2239Y32039D01*
G01X2187Y32011D01*
G01X2135Y31980D01*
G01X2084Y31948D01*
G01X2035Y31915D01*
G01X1986Y31879D01*
G01X1939Y31842D01*
G01X1893Y31803D01*
G01X1849Y31763D01*
G01X1805Y31722D01*
G01X1764Y31678D01*
G01X1724Y31634D01*
G01X1685Y31588D01*
G01X1648Y31541D01*
G01X1612Y31492D01*
G01X1579Y31443D01*
G01X1547Y31392D01*
G01X1516Y31340D01*
G01X1488Y31288D01*
G01X1461Y31234D01*
G01X1436Y31179D01*
G01X1413Y31124D01*
G01X1392Y31068D01*
G01X1373Y31011D01*
G01X1356Y30953D01*
G01X1341Y30895D01*
G01X1328Y30837D01*
G01X1317Y30778D01*
G01X1307Y30719D01*
G01X1300Y30659D01*
G01X1295Y30599D01*
G01X1292Y30539D01*
G01X1291Y30480D01*
G01X1292Y30420D01*
G01X1295Y30360D01*
G01X1300Y30300D01*
G01X1307Y30240D01*
G01X1317Y30181D01*
G01X1328Y30122D01*
G01X1341Y30064D01*
G01X1356Y30006D01*
G01X1373Y29948D01*
G01X1392Y29891D01*
G01X1413Y29835D01*
G01X1436Y29780D01*
G01X1461Y29725D01*
G01X1488Y29671D01*
G01X1516Y29619D01*
G01X1547Y29567D01*
G01X1579Y29516D01*
G01X1612Y29467D01*
G01X1648Y29418D01*
G01X1685Y29371D01*
G01X1724Y29325D01*
G01X1764Y29281D01*
G01X1805Y29237D01*
G01X1849Y29196D01*
G01X1893Y29156D01*
G01X1939Y29117D01*
G01X1986Y29080D01*
G01X2035Y29044D01*
G01X2084Y29011D01*
G01X2135Y28979D01*
G01X2187Y28948D01*
G01X2239Y28920D01*
G01X2293Y28893D01*
G01X2348Y28868D01*
G01X2403Y28845D01*
G01X2459Y28824D01*
G01X2516Y28805D01*
G01X2574Y28788D01*
G01X2632Y28773D01*
G01X2690Y28760D01*
G01X2749Y28749D01*
G01X2808Y28739D01*
G01X2868Y28732D01*
G01X2928Y28727D01*
G01X2988Y28724D01*
G01X3048Y28723D01*
G01X3107Y28724D01*
G01X3167Y28727D01*
G01X3227Y28732D01*
G01X3287Y28739D01*
G01X3346Y28749D01*
G01X3405Y28760D01*
G01X3463Y28773D01*
G01X3521Y28788D01*
G01X3579Y28805D01*
G01X3636Y28824D01*
G01X3692Y28845D01*
G01X3747Y28868D01*
G01X3802Y28893D01*
G01X3856Y28920D01*
G01X3908Y28948D01*
G01X3960Y28979D01*
G01X4011Y29011D01*
G01X4060Y29044D01*
G01X4109Y29080D01*
G01X4156Y29117D01*
G01X4202Y29156D01*
G01X4246Y29196D01*
G01X4290Y29237D01*
G01X4331Y29281D01*
G01X4371Y29325D01*
G01X4410Y29371D01*
G01X4447Y29418D01*
G01X4483Y29467D01*
G01X4516Y29516D01*
G01X4548Y29567D01*
G01X4579Y29619D01*
G01X4607Y29671D01*
G01X4634Y29725D01*
G01X4659Y29780D01*
G01X4682Y29835D01*
G01X4703Y29891D01*
G01X4722Y29948D01*
G01X4739Y30006D01*
G01X4754Y30064D01*
G01X4767Y30122D01*
G01X4778Y30181D01*
G01X4788Y30240D01*
G01X4795Y30300D01*
G01X4800Y30360D01*
G01X4803Y30420D01*
G01X4804Y30480D01*
G01X4803Y30539D01*
G01X4800Y30599D01*
G01X4795Y30659D01*
G01X4788Y30719D01*
G01X4778Y30778D01*
G01X4767Y30837D01*
G01X4754Y30895D01*
G01X4739Y30953D01*
G01X4722Y31011D01*
G01X4703Y31068D01*
G01X4682Y31124D01*
G01X4659Y31179D01*
G01X4634Y31234D01*
G01X4607Y31288D01*
G01X4579Y31340D01*
G01X4548Y31392D01*
G01X4516Y31443D01*
G01X4483Y31492D01*
G01X4447Y31541D01*
G01X4410Y31588D01*
G01X4371Y31634D01*
G01X4331Y31678D01*
G01X4290Y31722D01*
G01X4246Y31763D01*
G01X4202Y31803D01*
G01X4156Y31842D01*
G01X4109Y31879D01*
G01X4060Y31915D01*
G01X4011Y31948D01*
G01X3960Y31980D01*
G01X3908Y32011D01*
G01X3856Y32039D01*
G01X3802Y32066D01*
G01X3747Y32091D01*
G01X3692Y32114D01*
G01X3636Y32135D01*
G01X3579Y32154D01*
G01X3521Y32171D01*
G01X3463Y32186D01*
G01X3405Y32199D01*
G01X3346Y32210D01*
G01X3287Y32220D01*
G01X3227Y32227D01*
G01X3167Y32232D01*
G01X3107Y32235D01*
G37*
G36*
G01X31047Y19662D02*
G01X30988Y19663D01*
G01X30928Y19662D01*
G01X30868Y19659D01*
G01X30808Y19654D01*
G01X30748Y19647D01*
G01X30689Y19637D01*
G01X30630Y19626D01*
G01X30572Y19613D01*
G01X30514Y19598D01*
G01X30456Y19581D01*
G01X30399Y19562D01*
G01X30343Y19541D01*
G01X30288Y19518D01*
G01X30233Y19493D01*
G01X30179Y19466D01*
G01X30127Y19438D01*
G01X30075Y19407D01*
G01X30024Y19375D01*
G01X29975Y19342D01*
G01X29926Y19306D01*
G01X29879Y19269D01*
G01X29833Y19230D01*
G01X29789Y19190D01*
G01X29745Y19149D01*
G01X29704Y19105D01*
G01X29664Y19061D01*
G01X29625Y19015D01*
G01X29588Y18968D01*
G01X29552Y18919D01*
G01X29519Y18870D01*
G01X29487Y18819D01*
G01X29456Y18767D01*
G01X29428Y18715D01*
G01X29401Y18661D01*
G01X29376Y18606D01*
G01X29353Y18551D01*
G01X29332Y18495D01*
G01X29313Y18438D01*
G01X29296Y18380D01*
G01X29281Y18322D01*
G01X29268Y18264D01*
G01X29257Y18205D01*
G01X29247Y18146D01*
G01X29240Y18086D01*
G01X29235Y18026D01*
G01X29232Y17966D01*
G01X29231Y17907D01*
G01X29232Y17847D01*
G01X29235Y17787D01*
G01X29240Y17727D01*
G01X29247Y17667D01*
G01X29257Y17608D01*
G01X29268Y17549D01*
G01X29281Y17491D01*
G01X29296Y17433D01*
G01X29313Y17375D01*
G01X29332Y17318D01*
G01X29353Y17262D01*
G01X29376Y17207D01*
G01X29401Y17152D01*
G01X29428Y17098D01*
G01X29456Y17046D01*
G01X29487Y16994D01*
G01X29519Y16943D01*
G01X29552Y16894D01*
G01X29588Y16845D01*
G01X29625Y16798D01*
G01X29664Y16752D01*
G01X29704Y16708D01*
G01X29745Y16664D01*
G01X29789Y16623D01*
G01X29833Y16583D01*
G01X29879Y16544D01*
G01X29926Y16507D01*
G01X29975Y16471D01*
G01X30024Y16438D01*
G01X30075Y16406D01*
G01X30127Y16375D01*
G01X30179Y16347D01*
G01X30233Y16320D01*
G01X30288Y16295D01*
G01X30343Y16272D01*
G01X30399Y16251D01*
G01X30456Y16232D01*
G01X30514Y16215D01*
G01X30572Y16200D01*
G01X30630Y16187D01*
G01X30689Y16176D01*
G01X30748Y16166D01*
G01X30808Y16159D01*
G01X30868Y16154D01*
G01X30928Y16151D01*
G01X30988Y16150D01*
G01X31047Y16151D01*
G01X31107Y16154D01*
G01X31167Y16159D01*
G01X31227Y16166D01*
G01X31286Y16176D01*
G01X31345Y16187D01*
G01X31403Y16200D01*
G01X31461Y16215D01*
G01X31519Y16232D01*
G01X31576Y16251D01*
G01X31632Y16272D01*
G01X31687Y16295D01*
G01X31742Y16320D01*
G01X31796Y16347D01*
G01X31848Y16375D01*
G01X31900Y16406D01*
G01X31951Y16438D01*
G01X32000Y16471D01*
G01X32049Y16507D01*
G01X32096Y16544D01*
G01X32142Y16583D01*
G01X32186Y16623D01*
G01X32230Y16664D01*
G01X32271Y16708D01*
G01X32311Y16752D01*
G01X32350Y16798D01*
G01X32387Y16845D01*
G01X32423Y16894D01*
G01X32456Y16943D01*
G01X32488Y16994D01*
G01X32519Y17046D01*
G01X32547Y17098D01*
G01X32574Y17152D01*
G01X32599Y17207D01*
G01X32622Y17262D01*
G01X32643Y17318D01*
G01X32662Y17375D01*
G01X32679Y17433D01*
G01X32694Y17491D01*
G01X32707Y17549D01*
G01X32718Y17608D01*
G01X32728Y17667D01*
G01X32735Y17727D01*
G01X32740Y17787D01*
G01X32743Y17847D01*
G01X32744Y17907D01*
G01X32743Y17966D01*
G01X32740Y18026D01*
G01X32735Y18086D01*
G01X32728Y18146D01*
G01X32718Y18205D01*
G01X32707Y18264D01*
G01X32694Y18322D01*
G01X32679Y18380D01*
G01X32662Y18438D01*
G01X32643Y18495D01*
G01X32622Y18551D01*
G01X32599Y18606D01*
G01X32574Y18661D01*
G01X32547Y18715D01*
G01X32519Y18767D01*
G01X32488Y18819D01*
G01X32456Y18870D01*
G01X32423Y18919D01*
G01X32387Y18968D01*
G01X32350Y19015D01*
G01X32311Y19061D01*
G01X32271Y19105D01*
G01X32230Y19149D01*
G01X32186Y19190D01*
G01X32142Y19230D01*
G01X32096Y19269D01*
G01X32049Y19306D01*
G01X32000Y19342D01*
G01X31951Y19375D01*
G01X31900Y19407D01*
G01X31848Y19438D01*
G01X31796Y19466D01*
G01X31742Y19493D01*
G01X31687Y19518D01*
G01X31632Y19541D01*
G01X31576Y19562D01*
G01X31519Y19581D01*
G01X31461Y19598D01*
G01X31403Y19613D01*
G01X31345Y19626D01*
G01X31286Y19637D01*
G01X31227Y19647D01*
G01X31167Y19654D01*
G01X31107Y19659D01*
G01X31047Y19662D01*
G37*
G36*
G01X10486Y21007D02*
G01X10452Y21008D01*
G01X10418Y21007D01*
G01X10384Y21004D01*
G01X10350Y20999D01*
G01X10317Y20992D01*
G01X10285Y20983D01*
G01X10252Y20972D01*
G01X10221Y20959D01*
G01X10191Y20944D01*
G01X10161Y20927D01*
G01X10133Y20909D01*
G01X10105Y20889D01*
G01X10079Y20867D01*
G01X10055Y20844D01*
G01X10031Y20819D01*
G01X10010Y20793D01*
G01X9989Y20765D01*
G01X9971Y20737D01*
G01X9954Y20707D01*
G01X9940Y20677D01*
G01X9927Y20646D01*
G01X9915Y20614D01*
G01X9906Y20581D01*
G01X9899Y20548D01*
G01X9894Y20514D01*
G01X9891Y20480D01*
G01X9890Y20447D01*
G01X9891Y20412D01*
G01X9894Y20379D01*
G01X9899Y20345D01*
G01X9906Y20312D01*
G01X9916Y20279D01*
G01X9927Y20247D01*
G01X9940Y20215D01*
G01X9955Y20185D01*
G01X9972Y20155D01*
G01X9990Y20126D01*
G01X10010Y20099D01*
G01X10032Y20073D01*
G01X10056Y20048D01*
G01X10081Y20025D01*
G01X10091Y20015D01*
G01X10099Y20003D01*
G01X10106Y19991D01*
G01X10111Y19977D01*
G01X10114Y19963D01*
G01X10115Y19949D01*
G01X10115Y13684D01*
G01X10114Y13668D01*
G01X10110Y13652D01*
G01X10104Y13638D01*
G01X10096Y13624D01*
G01X10086Y13612D01*
G01X10074Y13602D01*
G01X10046Y13580D01*
G01X10020Y13557D01*
G01X9995Y13532D01*
G01X9972Y13505D01*
G01X9951Y13478D01*
G01X9931Y13449D01*
G01X9913Y13418D01*
G01X9897Y13387D01*
G01X9883Y13355D01*
G01X9872Y13322D01*
G01X9862Y13288D01*
G01X9854Y13254D01*
G01X9849Y13219D01*
G01X9845Y13184D01*
G01X9844Y13149D01*
G01X9845Y13115D01*
G01X9848Y13081D01*
G01X9854Y13048D01*
G01X9861Y13015D01*
G01X9870Y12982D01*
G01X9881Y12950D01*
G01X9894Y12919D01*
G01X9909Y12888D01*
G01X9925Y12859D01*
G01X9944Y12830D01*
G01X9964Y12803D01*
G01X9986Y12777D01*
G01X10009Y12752D01*
G01X10034Y12729D01*
G01X10060Y12707D01*
G01X10087Y12687D01*
G01X10115Y12669D01*
G01X10145Y12652D01*
G01X10175Y12637D01*
G01X10207Y12624D01*
G01X10239Y12613D01*
G01X10271Y12604D01*
G01X10305Y12597D01*
G01X10338Y12592D01*
G01X10372Y12589D01*
G01X10406Y12588D01*
G01X10440Y12589D01*
G01X10474Y12592D01*
G01X10507Y12597D01*
G01X10540Y12604D01*
G01X10573Y12613D01*
G01X10605Y12624D01*
G01X10636Y12637D01*
G01X10667Y12652D01*
G01X10696Y12669D01*
G01X10725Y12687D01*
G01X10752Y12707D01*
G01X10778Y12729D01*
G01X10803Y12752D01*
G01X10826Y12777D01*
G01X10848Y12803D01*
G01X10868Y12830D01*
G01X10886Y12859D01*
G01X10903Y12888D01*
G01X10918Y12919D01*
G01X10931Y12950D01*
G01X10942Y12982D01*
G01X10951Y13015D01*
G01X10958Y13048D01*
G01X10963Y13081D01*
G01X10966Y13115D01*
G01X10967Y13149D01*
G01X10966Y13184D01*
G01X10963Y13219D01*
G01X10958Y13254D01*
G01X10950Y13289D01*
G01X10940Y13322D01*
G01X10928Y13356D01*
G01X10914Y13388D01*
G01X10898Y13419D01*
G01X10880Y13450D01*
G01X10860Y13479D01*
G01X10839Y13507D01*
G01X10816Y13533D01*
G01X10806Y13545D01*
G01X10798Y13558D01*
G01X10793Y13572D01*
G01X10789Y13587D01*
G01X10788Y13603D01*
G01X10788Y19949D01*
G01X10789Y19963D01*
G01X10792Y19977D01*
G01X10797Y19991D01*
G01X10804Y20003D01*
G01X10813Y20015D01*
G01X10823Y20025D01*
G01X10847Y20048D01*
G01X10871Y20073D01*
G01X10893Y20099D01*
G01X10913Y20126D01*
G01X10932Y20155D01*
G01X10948Y20185D01*
G01X10963Y20215D01*
G01X10976Y20247D01*
G01X10988Y20279D01*
G01X10997Y20312D01*
G01X11004Y20345D01*
G01X11009Y20379D01*
G01X11012Y20412D01*
G01X11013Y20447D01*
G01X11012Y20480D01*
G01X11009Y20514D01*
G01X11004Y20548D01*
G01X10997Y20581D01*
G01X10988Y20614D01*
G01X10977Y20646D01*
G01X10964Y20677D01*
G01X10949Y20707D01*
G01X10932Y20737D01*
G01X10914Y20765D01*
G01X10894Y20793D01*
G01X10872Y20819D01*
G01X10849Y20844D01*
G01X10824Y20867D01*
G01X10798Y20889D01*
G01X10771Y20909D01*
G01X10742Y20927D01*
G01X10713Y20944D01*
G01X10682Y20959D01*
G01X10651Y20972D01*
G01X10619Y20983D01*
G01X10586Y20992D01*
G01X10553Y20999D01*
G01X10519Y21004D01*
G01X10486Y21007D01*
G37*
G36*
G01X28890Y10293D02*
G01X28856Y10294D01*
G01X28823Y10293D01*
G01X28789Y10290D01*
G01X28755Y10285D01*
G01X28722Y10278D01*
G01X28689Y10269D01*
G01X28657Y10258D01*
G01X28626Y10245D01*
G01X28595Y10230D01*
G01X28566Y10213D01*
G01X28537Y10195D01*
G01X28510Y10175D01*
G01X28484Y10153D01*
G01X28459Y10130D01*
G01X28436Y10105D01*
G01X28414Y10079D01*
G01X28394Y10052D01*
G01X28376Y10023D01*
G01X28359Y9994D01*
G01X28344Y9963D01*
G01X28331Y9932D01*
G01X28320Y9900D01*
G01X28311Y9867D01*
G01X28304Y9834D01*
G01X28299Y9800D01*
G01X28296Y9767D01*
G01X28295Y9733D01*
G01X28296Y9699D01*
G01X28299Y9665D01*
G01X28304Y9631D01*
G01X28311Y9598D01*
G01X28321Y9565D01*
G01X28332Y9533D01*
G01X28345Y9501D01*
G01X28360Y9471D01*
G01X28376Y9441D01*
G01X28395Y9413D01*
G01X28415Y9385D01*
G01X28437Y9359D01*
G01X28485Y9311D01*
G01X28496Y9301D01*
G01X28504Y9289D01*
G01X28511Y9277D01*
G01X28516Y9263D01*
G01X28519Y9249D01*
G01X28520Y9235D01*
G01X28520Y7256D01*
G01X28519Y7242D01*
G01X28516Y7228D01*
G01X28511Y7214D01*
G01X28504Y7202D01*
G01X28496Y7190D01*
G01X28485Y7180D01*
G01X28461Y7157D01*
G01X28437Y7132D01*
G01X28415Y7106D01*
G01X28395Y7078D01*
G01X28376Y7050D01*
G01X28360Y7020D01*
G01X28345Y6990D01*
G01X28332Y6958D01*
G01X28321Y6926D01*
G01X28311Y6893D01*
G01X28304Y6860D01*
G01X28299Y6826D01*
G01X28296Y6792D01*
G01X28295Y6758D01*
G01X28296Y6725D01*
G01X28299Y6691D01*
G01X28304Y6657D01*
G01X28311Y6624D01*
G01X28320Y6591D01*
G01X28331Y6559D01*
G01X28344Y6528D01*
G01X28359Y6497D01*
G01X28376Y6468D01*
G01X28394Y6439D01*
G01X28414Y6412D01*
G01X28436Y6386D01*
G01X28459Y6361D01*
G01X28484Y6338D01*
G01X28510Y6316D01*
G01X28537Y6296D01*
G01X28566Y6278D01*
G01X28595Y6261D01*
G01X28626Y6246D01*
G01X28657Y6233D01*
G01X28689Y6222D01*
G01X28722Y6213D01*
G01X28755Y6206D01*
G01X28789Y6201D01*
G01X28823Y6198D01*
G01X28856Y6197D01*
G01X28890Y6198D01*
G01X28924Y6201D01*
G01X28958Y6206D01*
G01X28991Y6213D01*
G01X29024Y6222D01*
G01X29056Y6233D01*
G01X29087Y6246D01*
G01X29117Y6261D01*
G01X29147Y6278D01*
G01X29175Y6296D01*
G01X29203Y6316D01*
G01X29229Y6338D01*
G01X29254Y6361D01*
G01X29277Y6386D01*
G01X29298Y6412D01*
G01X29319Y6439D01*
G01X29337Y6468D01*
G01X29354Y6497D01*
G01X29369Y6528D01*
G01X29381Y6559D01*
G01X29393Y6591D01*
G01X29402Y6624D01*
G01X29409Y6657D01*
G01X29414Y6691D01*
G01X29417Y6725D01*
G01X29418Y6758D01*
G01X29417Y6792D01*
G01X29414Y6826D01*
G01X29409Y6860D01*
G01X29402Y6893D01*
G01X29392Y6926D01*
G01X29381Y6958D01*
G01X29368Y6990D01*
G01X29353Y7020D01*
G01X29336Y7050D01*
G01X29318Y7078D01*
G01X29298Y7106D01*
G01X29276Y7132D01*
G01X29252Y7157D01*
G01X29227Y7180D01*
G01X29217Y7190D01*
G01X29209Y7202D01*
G01X29202Y7214D01*
G01X29197Y7228D01*
G01X29194Y7242D01*
G01X29193Y7256D01*
G01X29193Y9235D01*
G01X29194Y9249D01*
G01X29197Y9263D01*
G01X29202Y9277D01*
G01X29209Y9289D01*
G01X29217Y9301D01*
G01X29227Y9311D01*
G01X29252Y9335D01*
G01X29276Y9359D01*
G01X29298Y9385D01*
G01X29318Y9413D01*
G01X29336Y9441D01*
G01X29353Y9471D01*
G01X29368Y9501D01*
G01X29381Y9533D01*
G01X29392Y9565D01*
G01X29402Y9598D01*
G01X29409Y9631D01*
G01X29414Y9665D01*
G01X29417Y9699D01*
G01X29418Y9733D01*
G01X29417Y9767D01*
G01X29414Y9800D01*
G01X29409Y9834D01*
G01X29402Y9867D01*
G01X29393Y9900D01*
G01X29381Y9932D01*
G01X29369Y9963D01*
G01X29354Y9994D01*
G01X29337Y10023D01*
G01X29319Y10052D01*
G01X29298Y10079D01*
G01X29277Y10105D01*
G01X29254Y10130D01*
G01X29229Y10153D01*
G01X29203Y10175D01*
G01X29175Y10195D01*
G01X29147Y10213D01*
G01X29117Y10230D01*
G01X29087Y10245D01*
G01X29056Y10258D01*
G01X29024Y10269D01*
G01X28991Y10278D01*
G01X28958Y10285D01*
G01X28924Y10290D01*
G01X28890Y10293D01*
G37*
G36*
G01X13868Y32285D02*
G01X12293Y32285D01*
G01X12269Y32284D01*
G01X12246Y32281D01*
G01X12223Y32276D01*
G01X12200Y32268D01*
G01X12179Y32259D01*
G01X12158Y32247D01*
G01X12139Y32234D01*
G01X12120Y32218D01*
G01X12104Y32202D01*
G01X12088Y32183D01*
G01X12075Y32164D01*
G01X12063Y32143D01*
G01X12054Y32122D01*
G01X12046Y32099D01*
G01X12041Y32076D01*
G01X12038Y32053D01*
G01X12037Y32029D01*
G01X12037Y30454D01*
G01X12038Y30430D01*
G01X12041Y30407D01*
G01X12046Y30384D01*
G01X12054Y30361D01*
G01X12063Y30340D01*
G01X12075Y30319D01*
G01X12088Y30300D01*
G01X12104Y30281D01*
G01X12120Y30265D01*
G01X12139Y30249D01*
G01X12158Y30236D01*
G01X12179Y30224D01*
G01X12200Y30215D01*
G01X12223Y30207D01*
G01X12246Y30202D01*
G01X12269Y30199D01*
G01X12293Y30198D01*
G01X13868Y30198D01*
G01X13892Y30199D01*
G01X13915Y30202D01*
G01X13938Y30207D01*
G01X13961Y30215D01*
G01X13982Y30224D01*
G01X14003Y30236D01*
G01X14022Y30249D01*
G01X14041Y30265D01*
G01X14057Y30281D01*
G01X14073Y30300D01*
G01X14086Y30319D01*
G01X14098Y30340D01*
G01X14107Y30361D01*
G01X14115Y30384D01*
G01X14120Y30407D01*
G01X14123Y30430D01*
G01X14124Y30454D01*
G01X14124Y32029D01*
G01X14123Y32053D01*
G01X14120Y32076D01*
G01X14115Y32099D01*
G01X14107Y32122D01*
G01X14098Y32143D01*
G01X14086Y32164D01*
G01X14073Y32183D01*
G01X14057Y32202D01*
G01X14041Y32218D01*
G01X14022Y32234D01*
G01X14003Y32247D01*
G01X13982Y32259D01*
G01X13961Y32268D01*
G01X13938Y32276D01*
G01X13915Y32281D01*
G01X13892Y32284D01*
G01X13868Y32285D01*
G37*
G36*
G01X3327Y12600D02*
G01X1752Y12600D01*
G01X1728Y12599D01*
G01X1705Y12596D01*
G01X1682Y12591D01*
G01X1659Y12583D01*
G01X1638Y12574D01*
G01X1617Y12562D01*
G01X1598Y12549D01*
G01X1579Y12533D01*
G01X1563Y12517D01*
G01X1547Y12498D01*
G01X1534Y12479D01*
G01X1522Y12458D01*
G01X1513Y12437D01*
G01X1505Y12414D01*
G01X1500Y12391D01*
G01X1497Y12368D01*
G01X1496Y12344D01*
G01X1496Y10769D01*
G01X1497Y10745D01*
G01X1500Y10722D01*
G01X1505Y10699D01*
G01X1513Y10676D01*
G01X1522Y10655D01*
G01X1534Y10634D01*
G01X1547Y10615D01*
G01X1563Y10596D01*
G01X1579Y10580D01*
G01X1598Y10564D01*
G01X1617Y10551D01*
G01X1638Y10539D01*
G01X1659Y10530D01*
G01X1682Y10522D01*
G01X1705Y10517D01*
G01X1728Y10514D01*
G01X1752Y10513D01*
G01X3327Y10513D01*
G01X3351Y10514D01*
G01X3374Y10517D01*
G01X3397Y10522D01*
G01X3420Y10530D01*
G01X3441Y10539D01*
G01X3462Y10551D01*
G01X3481Y10564D01*
G01X3500Y10580D01*
G01X3516Y10596D01*
G01X3532Y10615D01*
G01X3545Y10634D01*
G01X3557Y10655D01*
G01X3566Y10676D01*
G01X3574Y10699D01*
G01X3579Y10722D01*
G01X3582Y10745D01*
G01X3583Y10769D01*
G01X3583Y12344D01*
G01X3582Y12368D01*
G01X3579Y12391D01*
G01X3574Y12414D01*
G01X3566Y12437D01*
G01X3557Y12458D01*
G01X3545Y12479D01*
G01X3532Y12498D01*
G01X3516Y12517D01*
G01X3500Y12533D01*
G01X3481Y12549D01*
G01X3462Y12562D01*
G01X3441Y12574D01*
G01X3420Y12583D01*
G01X3397Y12591D01*
G01X3374Y12596D01*
G01X3351Y12599D01*
G01X3327Y12600D01*
G37*
G36*
G01X3327Y17680D02*
G01X1752Y17680D01*
G01X1728Y17679D01*
G01X1705Y17676D01*
G01X1682Y17671D01*
G01X1659Y17663D01*
G01X1638Y17654D01*
G01X1617Y17642D01*
G01X1598Y17629D01*
G01X1579Y17613D01*
G01X1563Y17597D01*
G01X1547Y17578D01*
G01X1534Y17559D01*
G01X1522Y17538D01*
G01X1513Y17517D01*
G01X1505Y17494D01*
G01X1500Y17471D01*
G01X1497Y17448D01*
G01X1496Y17424D01*
G01X1496Y15849D01*
G01X1497Y15825D01*
G01X1500Y15802D01*
G01X1505Y15779D01*
G01X1513Y15756D01*
G01X1522Y15735D01*
G01X1534Y15714D01*
G01X1547Y15695D01*
G01X1563Y15676D01*
G01X1579Y15660D01*
G01X1598Y15644D01*
G01X1617Y15631D01*
G01X1638Y15619D01*
G01X1659Y15610D01*
G01X1682Y15602D01*
G01X1705Y15597D01*
G01X1728Y15594D01*
G01X1752Y15593D01*
G01X3327Y15593D01*
G01X3351Y15594D01*
G01X3374Y15597D01*
G01X3397Y15602D01*
G01X3420Y15610D01*
G01X3441Y15619D01*
G01X3462Y15631D01*
G01X3481Y15644D01*
G01X3500Y15660D01*
G01X3516Y15676D01*
G01X3532Y15695D01*
G01X3545Y15714D01*
G01X3557Y15735D01*
G01X3566Y15756D01*
G01X3574Y15779D01*
G01X3579Y15802D01*
G01X3582Y15825D01*
G01X3583Y15849D01*
G01X3583Y17424D01*
G01X3582Y17448D01*
G01X3579Y17471D01*
G01X3574Y17494D01*
G01X3566Y17517D01*
G01X3557Y17538D01*
G01X3545Y17559D01*
G01X3532Y17578D01*
G01X3516Y17597D01*
G01X3500Y17613D01*
G01X3481Y17629D01*
G01X3462Y17642D01*
G01X3441Y17654D01*
G01X3420Y17663D01*
G01X3397Y17671D01*
G01X3374Y17676D01*
G01X3351Y17679D01*
G01X3327Y17680D01*
G37*
G36*
G01X3327Y27586D02*
G01X1752Y27586D01*
G01X1728Y27585D01*
G01X1705Y27582D01*
G01X1682Y27577D01*
G01X1659Y27569D01*
G01X1638Y27560D01*
G01X1617Y27548D01*
G01X1598Y27535D01*
G01X1579Y27519D01*
G01X1563Y27503D01*
G01X1547Y27484D01*
G01X1534Y27465D01*
G01X1522Y27444D01*
G01X1513Y27423D01*
G01X1505Y27400D01*
G01X1500Y27377D01*
G01X1497Y27354D01*
G01X1496Y27330D01*
G01X1496Y25755D01*
G01X1497Y25731D01*
G01X1500Y25708D01*
G01X1505Y25685D01*
G01X1513Y25662D01*
G01X1522Y25641D01*
G01X1534Y25620D01*
G01X1547Y25601D01*
G01X1563Y25582D01*
G01X1579Y25566D01*
G01X1598Y25550D01*
G01X1617Y25537D01*
G01X1638Y25525D01*
G01X1659Y25516D01*
G01X1682Y25508D01*
G01X1705Y25503D01*
G01X1728Y25500D01*
G01X1752Y25499D01*
G01X3327Y25499D01*
G01X3351Y25500D01*
G01X3374Y25503D01*
G01X3397Y25508D01*
G01X3420Y25516D01*
G01X3441Y25525D01*
G01X3462Y25537D01*
G01X3481Y25550D01*
G01X3500Y25566D01*
G01X3516Y25582D01*
G01X3532Y25601D01*
G01X3545Y25620D01*
G01X3557Y25641D01*
G01X3566Y25662D01*
G01X3574Y25685D01*
G01X3579Y25708D01*
G01X3582Y25731D01*
G01X3583Y25755D01*
G01X3583Y27330D01*
G01X3582Y27354D01*
G01X3579Y27377D01*
G01X3574Y27400D01*
G01X3566Y27423D01*
G01X3557Y27444D01*
G01X3545Y27465D01*
G01X3532Y27484D01*
G01X3516Y27503D01*
G01X3500Y27519D01*
G01X3481Y27535D01*
G01X3462Y27548D01*
G01X3441Y27560D01*
G01X3420Y27569D01*
G01X3397Y27577D01*
G01X3374Y27582D01*
G01X3351Y27585D01*
G01X3327Y27586D01*
G37*
G36*
G01X3327Y22633D02*
G01X1752Y22633D01*
G01X1728Y22632D01*
G01X1705Y22629D01*
G01X1682Y22624D01*
G01X1659Y22616D01*
G01X1638Y22607D01*
G01X1617Y22595D01*
G01X1598Y22582D01*
G01X1579Y22566D01*
G01X1563Y22550D01*
G01X1547Y22531D01*
G01X1534Y22512D01*
G01X1522Y22491D01*
G01X1513Y22470D01*
G01X1505Y22447D01*
G01X1500Y22424D01*
G01X1497Y22401D01*
G01X1496Y22377D01*
G01X1496Y20802D01*
G01X1497Y20778D01*
G01X1500Y20755D01*
G01X1505Y20732D01*
G01X1513Y20709D01*
G01X1522Y20688D01*
G01X1534Y20667D01*
G01X1547Y20648D01*
G01X1563Y20629D01*
G01X1579Y20613D01*
G01X1598Y20597D01*
G01X1617Y20584D01*
G01X1638Y20572D01*
G01X1659Y20563D01*
G01X1682Y20555D01*
G01X1705Y20550D01*
G01X1728Y20547D01*
G01X1752Y20546D01*
G01X3327Y20546D01*
G01X3351Y20547D01*
G01X3374Y20550D01*
G01X3397Y20555D01*
G01X3420Y20563D01*
G01X3441Y20572D01*
G01X3462Y20584D01*
G01X3481Y20597D01*
G01X3500Y20613D01*
G01X3516Y20629D01*
G01X3532Y20648D01*
G01X3545Y20667D01*
G01X3557Y20688D01*
G01X3566Y20709D01*
G01X3574Y20732D01*
G01X3579Y20755D01*
G01X3582Y20778D01*
G01X3583Y20802D01*
G01X3583Y22377D01*
G01X3582Y22401D01*
G01X3579Y22424D01*
G01X3574Y22447D01*
G01X3566Y22470D01*
G01X3557Y22491D01*
G01X3545Y22512D01*
G01X3532Y22531D01*
G01X3516Y22550D01*
G01X3500Y22566D01*
G01X3481Y22582D01*
G01X3462Y22595D01*
G01X3441Y22607D01*
G01X3420Y22616D01*
G01X3397Y22624D01*
G01X3374Y22629D01*
G01X3351Y22632D01*
G01X3327Y22633D01*
G37*
G36*
G01X2146Y6337D02*
G01X1496Y6337D01*
G01X1496Y5943D01*
G01X1497Y5919D01*
G01X1500Y5896D01*
G01X1505Y5873D01*
G01X1513Y5850D01*
G01X1522Y5829D01*
G01X1534Y5808D01*
G01X1547Y5789D01*
G01X1563Y5770D01*
G01X1579Y5754D01*
G01X1598Y5738D01*
G01X1617Y5725D01*
G01X1638Y5713D01*
G01X1659Y5704D01*
G01X1682Y5696D01*
G01X1705Y5691D01*
G01X1728Y5688D01*
G01X1752Y5687D01*
G01X2146Y5687D01*
G01X2146Y6337D01*
G37*
G36*
G01X2146Y7774D02*
G01X1752Y7774D01*
G01X1728Y7773D01*
G01X1705Y7770D01*
G01X1682Y7765D01*
G01X1659Y7757D01*
G01X1638Y7748D01*
G01X1617Y7736D01*
G01X1598Y7723D01*
G01X1579Y7707D01*
G01X1563Y7691D01*
G01X1547Y7672D01*
G01X1534Y7653D01*
G01X1522Y7632D01*
G01X1513Y7611D01*
G01X1505Y7588D01*
G01X1500Y7565D01*
G01X1497Y7542D01*
G01X1496Y7518D01*
G01X1496Y7124D01*
G01X2146Y7124D01*
G01X2146Y7774D01*
G37*
G36*
G01X3583Y6337D02*
G01X2933Y6337D01*
G01X2933Y5687D01*
G01X3327Y5687D01*
G01X3351Y5688D01*
G01X3374Y5691D01*
G01X3397Y5696D01*
G01X3420Y5704D01*
G01X3441Y5713D01*
G01X3462Y5725D01*
G01X3481Y5738D01*
G01X3500Y5754D01*
G01X3516Y5770D01*
G01X3532Y5789D01*
G01X3545Y5808D01*
G01X3557Y5829D01*
G01X3566Y5850D01*
G01X3574Y5873D01*
G01X3579Y5896D01*
G01X3582Y5919D01*
G01X3583Y5943D01*
G01X3583Y6337D01*
G37*
G36*
G01X18442Y30848D02*
G01X17792Y30848D01*
G01X17792Y30198D01*
G01X18186Y30198D01*
G01X18210Y30199D01*
G01X18233Y30202D01*
G01X18256Y30207D01*
G01X18279Y30215D01*
G01X18300Y30224D01*
G01X18321Y30236D01*
G01X18340Y30249D01*
G01X18359Y30265D01*
G01X18375Y30281D01*
G01X18391Y30300D01*
G01X18404Y30319D01*
G01X18416Y30340D01*
G01X18425Y30361D01*
G01X18433Y30384D01*
G01X18438Y30407D01*
G01X18441Y30430D01*
G01X18442Y30454D01*
G01X18442Y30848D01*
G37*
G36*
G01X18186Y32285D02*
G01X17792Y32285D01*
G01X17792Y31635D01*
G01X18442Y31635D01*
G01X18442Y32029D01*
G01X18441Y32053D01*
G01X18438Y32076D01*
G01X18433Y32099D01*
G01X18425Y32122D01*
G01X18416Y32143D01*
G01X18404Y32164D01*
G01X18391Y32183D01*
G01X18375Y32202D01*
G01X18359Y32218D01*
G01X18340Y32234D01*
G01X18321Y32247D01*
G01X18300Y32259D01*
G01X18279Y32268D01*
G01X18256Y32276D01*
G01X18233Y32281D01*
G01X18210Y32284D01*
G01X18186Y32285D01*
G37*
G36*
G01X3327Y7774D02*
G01X2933Y7774D01*
G01X2933Y7124D01*
G01X3583Y7124D01*
G01X3583Y7518D01*
G01X3582Y7542D01*
G01X3579Y7565D01*
G01X3574Y7588D01*
G01X3566Y7611D01*
G01X3557Y7632D01*
G01X3545Y7653D01*
G01X3532Y7672D01*
G01X3516Y7691D01*
G01X3500Y7707D01*
G01X3481Y7723D01*
G01X3462Y7736D01*
G01X3441Y7748D01*
G01X3420Y7757D01*
G01X3397Y7765D01*
G01X3374Y7770D01*
G01X3351Y7773D01*
G01X3327Y7774D01*
G37*
G36*
G01X17005Y30848D02*
G01X16355Y30848D01*
G01X16355Y30454D01*
G01X16356Y30430D01*
G01X16359Y30407D01*
G01X16364Y30384D01*
G01X16372Y30361D01*
G01X16381Y30340D01*
G01X16393Y30319D01*
G01X16406Y30300D01*
G01X16422Y30281D01*
G01X16438Y30265D01*
G01X16457Y30249D01*
G01X16476Y30236D01*
G01X16497Y30224D01*
G01X16518Y30215D01*
G01X16541Y30207D01*
G01X16564Y30202D01*
G01X16587Y30199D01*
G01X16611Y30198D01*
G01X17005Y30198D01*
G01X17005Y30848D01*
G37*
G36*
G01X17005Y32285D02*
G01X16611Y32285D01*
G01X16587Y32284D01*
G01X16564Y32281D01*
G01X16541Y32276D01*
G01X16518Y32268D01*
G01X16497Y32259D01*
G01X16476Y32247D01*
G01X16457Y32234D01*
G01X16438Y32218D01*
G01X16422Y32202D01*
G01X16406Y32183D01*
G01X16393Y32164D01*
G01X16381Y32143D01*
G01X16372Y32122D01*
G01X16364Y32099D01*
G01X16359Y32076D01*
G01X16356Y32053D01*
G01X16355Y32029D01*
G01X16355Y31635D01*
G01X17005Y31635D01*
G01X17005Y32285D01*
G37*

%LPD*%
G54D11*
G01X17399Y31242D02*
G01X17399Y25072D01*
G01X28158Y14312D01*
G01X27947Y13296D02*
G01X25593Y15651D01*
G01X28300Y13296D02*
G01X27947Y13296D01*
G01X27947Y13296D02*
G01X25847Y11198D01*
G01X25847Y8856D01*
G01X23815Y13848D02*
G01X24970Y12692D01*
G01X24970Y9090D01*
G01X24785Y6619D02*
G01X25689Y6619D01*
G01X27663Y8592D01*
G01X10452Y20447D02*
G01X10452Y13192D01*
G01X10406Y13149D01*
G01X18755Y6642D02*
G01X18755Y7101D01*
G01X23837Y12184D01*
G01X28194Y16205D02*
G01X31480Y12920D01*
G01X31480Y11346D01*
G01X28856Y6758D02*
G01X28856Y9733D01*
G36*
G01X13868Y32029D02*
G01X13868Y30454D01*
G01X12293Y30454D01*
G01X12293Y32029D01*
G01X13868Y32029D01*
G37*
G36*
G01X18186Y32029D02*
G01X18186Y30454D01*
G01X16611Y30454D01*
G01X16611Y32029D01*
G01X18186Y32029D01*
G37*
G36*
G01X3327Y27330D02*
G01X3327Y25755D01*
G01X1752Y25755D01*
G01X1752Y27330D01*
G01X3327Y27330D01*
G37*
G36*
G01X3327Y22377D02*
G01X3327Y20802D01*
G01X1752Y20802D01*
G01X1752Y22377D01*
G01X3327Y22377D01*
G37*
G36*
G01X3327Y17424D02*
G01X3327Y15849D01*
G01X1752Y15849D01*
G01X1752Y17424D01*
G01X3327Y17424D01*
G37*
G36*
G01X3327Y12344D02*
G01X3327Y10769D01*
G01X1752Y10769D01*
G01X1752Y12344D01*
G01X3327Y12344D01*
G37*
G36*
G01X3327Y7518D02*
G01X3327Y5943D01*
G01X1752Y5943D01*
G01X1752Y7518D01*
G01X3327Y7518D01*
G37*
G54D15*
G01X28158Y14312D03*
G01X25847Y8856D03*
G01X28300Y13296D03*
G01X25593Y15651D03*
G01X24970Y9090D03*
G01X23815Y13848D03*
G01X24785Y6619D03*
G01X27663Y8592D03*
G01X10452Y20447D03*
G01X10406Y13149D03*
G01X23837Y12184D03*
G01X18755Y6642D03*
G01X28194Y16205D03*
G01X31480Y11346D03*
G01X28856Y6758D03*
G01X28856Y9733D03*
M00*
M02*
