;Layer: Drill PTH
;EasyEDA v6.1.34, Sat, 04 May 2019 03:32:15 GMT
;a282187419204f9284f90a9f3713dfcb,c51538707a8b4a26ae849ea9e5911ac7,10
;Gerber Generator version 0.2
M48
METRIC,LZ,000.000
;Holesize 1 = 0.310 METRIC
T01C0.310
;Holesize 2 = 0.889 METRIC
T02C0.889
%
G05
G90
T01
X+028158Y+014312
X+025847Y+008856
X+028300Y+013296
X+025593Y+015651
X+024970Y+009090
X+023815Y+013848
X+024785Y+006619
X+027663Y+008592
X+010452Y+020447
X+010406Y+013149
X+023837Y+012184
X+018755Y+006642
X+028194Y+016205
X+031480Y+011346
X+028856Y+006758
X+028856Y+009733
T02
X+013081Y+031242
X+017399Y+031242
X+002540Y+026543
X+002540Y+021590
X+002540Y+016637
X+002540Y+011557
X+002540Y+006731
M30
