G04 Layer: TopSolderMaskLayer*
G04 EasyEDA v6.1.34, Sat, 04 May 2019 03:32:15 GMT*
G04 a282187419204f9284f90a9f3713dfcb,c51538707a8b4a26ae849ea9e5911ac7,10*
G04 Gerber Generator version 0.2*
G04 Scale: 100 percent, Rotated: No, Reflected: No *
G04 Dimensions in millimeters *
G04 leading zeros omitted , absolute positions ,3 integer and 3 decimal *
%FSLAX33Y33*%
%MOMM*%
G90*
G71D02*

%ADD33C,0.261595*%
%ADD34C,1.101598*%
%ADD35C,0.483210*%
%ADD36C,0.653212*%
%ADD37R,0.803148X0.853186*%
%ADD41R,2.503195X2.503195*%
%ADD42R,2.203196X1.203198*%
%ADD43R,1.603197X1.103198*%

%LPD*%
G54D33*
G01X9959Y3352D02*
G01X9959Y5598D01*
G01X9758Y5798D01*
G01X6154Y5798D01*
G01X5694Y6258D01*
G01X5694Y12575D01*
G01X7978Y14859D01*
G01X13792Y14859D01*
G01X13792Y15135D01*
G01X9017Y4953D02*
G01X5702Y5379D01*
G01X1511Y10695D01*
G01X1511Y12534D01*
G01X5250Y16273D01*
G01X14940Y16273D01*
G01X15367Y16700D01*
G54D34*
G01X23705Y26035D02*
G01X23705Y24892D01*
G01X20955Y24892D01*
G01X20574Y25273D01*
G01X20574Y25908D01*
G54D35*
G01X25670Y13893D02*
G01X25670Y13373D01*
G01X26170Y13893D02*
G01X26170Y13373D01*
G01X26670Y13893D02*
G01X26670Y13373D01*
G01X27170Y13893D02*
G01X27170Y13373D01*
G01X27669Y13893D02*
G01X27669Y13373D01*
G01X28359Y12683D02*
G01X28879Y12683D01*
G01X28359Y12183D02*
G01X28879Y12183D01*
G01X28359Y11684D02*
G01X28879Y11684D01*
G01X28359Y11183D02*
G01X28879Y11183D01*
G01X28359Y10684D02*
G01X28879Y10684D01*
G01X27669Y9994D02*
G01X27669Y9474D01*
G01X27170Y9994D02*
G01X27170Y9474D01*
G01X26670Y9994D02*
G01X26670Y9474D01*
G01X26170Y9994D02*
G01X26170Y9474D01*
G01X25670Y9994D02*
G01X25670Y9474D01*
G01X24460Y10684D02*
G01X24980Y10684D01*
G01X24460Y11183D02*
G01X24980Y11183D01*
G01X24460Y11684D02*
G01X24980Y11684D01*
G01X24460Y12183D02*
G01X24980Y12183D01*
G01X24460Y12683D02*
G01X24980Y12683D01*
G54D36*
G01X15367Y17300D02*
G01X15367Y16100D01*
G01X16167Y17300D02*
G01X16167Y16100D01*
G01X16967Y17300D02*
G01X16967Y16100D01*
G01X17767Y17300D02*
G01X17767Y16100D01*
G01X18564Y17300D02*
G01X18564Y16100D01*
G01X19364Y17300D02*
G01X19364Y16100D01*
G01X20165Y17300D02*
G01X20165Y16100D01*
G01X20965Y17300D02*
G01X20965Y16100D01*
G01X21929Y15125D02*
G01X23129Y15125D01*
G01X21929Y14325D02*
G01X23129Y14325D01*
G01X21929Y13525D02*
G01X23129Y13525D01*
G01X21929Y12725D02*
G01X23129Y12725D01*
G01X21929Y11927D02*
G01X23129Y11927D01*
G01X21929Y11127D02*
G01X23129Y11127D01*
G01X21929Y10327D02*
G01X23129Y10327D01*
G01X21929Y9527D02*
G01X23129Y9527D01*
G01X20955Y8537D02*
G01X20955Y7337D01*
G01X20154Y8537D02*
G01X20154Y7337D01*
G01X19354Y8537D02*
G01X19354Y7337D01*
G01X18554Y8537D02*
G01X18554Y7337D01*
G01X17757Y8537D02*
G01X17757Y7337D01*
G01X16957Y8537D02*
G01X16957Y7337D01*
G01X16156Y8537D02*
G01X16156Y7337D01*
G01X15356Y8537D02*
G01X15356Y7337D01*
G01X13192Y9537D02*
G01X14392Y9537D01*
G01X13192Y10337D02*
G01X14392Y10337D01*
G01X13192Y11137D02*
G01X14392Y11137D01*
G01X13192Y11938D02*
G01X14392Y11938D01*
G01X13192Y12735D02*
G01X14392Y12735D01*
G01X13192Y13535D02*
G01X14392Y13535D01*
G01X13192Y14335D02*
G01X14392Y14335D01*
G01X13192Y15135D02*
G01X14392Y15135D01*
G54D37*
G01X27305Y24384D03*
G36*
G01X26822Y2362D02*
G01X26822Y4495D01*
G01X32359Y4495D01*
G01X32359Y2362D01*
G01X26822Y2362D01*
G37*
G36*
G01X17170Y2362D02*
G01X17170Y4495D01*
G01X22707Y4495D01*
G01X22707Y2362D01*
G01X17170Y2362D01*
G37*
G36*
G01X7823Y17678D02*
G01X7823Y23215D01*
G01X9956Y23215D01*
G01X9956Y17678D01*
G01X7823Y17678D01*
G37*
G36*
G01X7823Y8026D02*
G01X7823Y13563D01*
G01X9956Y13563D01*
G01X9956Y8026D01*
G01X7823Y8026D01*
G37*
G01X23538Y7747D03*
G01X22689Y7747D03*
G36*
G01X24574Y7320D02*
G01X24574Y8173D01*
G01X25377Y8173D01*
G01X25377Y7320D01*
G01X24574Y7320D01*
G37*
G36*
G01X25422Y7320D02*
G01X25422Y8173D01*
G01X26225Y8173D01*
G01X26225Y7320D01*
G01X25422Y7320D01*
G37*
G01X7536Y6731D03*
G01X6687Y6731D03*
G01X12997Y7747D03*
G01X12148Y7747D03*
G36*
G01X29799Y12636D02*
G01X29799Y13439D01*
G01X30652Y13439D01*
G01X30652Y12636D01*
G01X29799Y12636D01*
G37*
G36*
G01X29799Y13484D02*
G01X29799Y14287D01*
G01X30652Y14287D01*
G01X30652Y13484D01*
G01X29799Y13484D01*
G37*
G36*
G01X31704Y12636D02*
G01X31704Y13439D01*
G01X32557Y13439D01*
G01X32557Y12636D01*
G01X31704Y12636D01*
G37*
G36*
G01X31704Y13484D02*
G01X31704Y14287D01*
G01X32557Y14287D01*
G01X32557Y13484D01*
G01X31704Y13484D01*
G37*
G01X24554Y26035D03*
G01X23705Y26035D03*
G36*
G01X20256Y18877D02*
G01X20256Y19730D01*
G01X21059Y19730D01*
G01X21059Y18877D01*
G01X20256Y18877D01*
G37*
G36*
G01X21104Y18877D02*
G01X21104Y19730D01*
G01X21907Y19730D01*
G01X21907Y18877D01*
G01X21104Y18877D01*
G37*
G01X19474Y20955D03*
G01X18625Y20955D03*
G36*
G01X18859Y22814D02*
G01X18859Y23667D01*
G01X19662Y23667D01*
G01X19662Y22814D01*
G01X18859Y22814D01*
G37*
G36*
G01X19707Y22814D02*
G01X19707Y23667D01*
G01X20510Y23667D01*
G01X20510Y22814D01*
G01X19707Y22814D01*
G37*
G36*
G01X23685Y19131D02*
G01X23685Y19984D01*
G01X24488Y19984D01*
G01X24488Y19131D01*
G01X23685Y19131D01*
G37*
G36*
G01X24533Y19131D02*
G01X24533Y19984D01*
G01X25336Y19984D01*
G01X25336Y19131D01*
G01X24533Y19131D01*
G37*
G36*
G01X29672Y10096D02*
G01X29672Y10899D01*
G01X30525Y10899D01*
G01X30525Y10096D01*
G01X29672Y10096D01*
G37*
G36*
G01X29672Y10944D02*
G01X29672Y11747D01*
G01X30525Y11747D01*
G01X30525Y10944D01*
G01X29672Y10944D01*
G37*
G01X26078Y21336D03*
G01X25229Y21336D03*
G01X27990Y7747D03*
G01X27142Y7747D03*
G36*
G01X22161Y22560D02*
G01X22161Y23413D01*
G01X22964Y23413D01*
G01X22964Y22560D01*
G01X22161Y22560D01*
G37*
G36*
G01X23009Y22560D02*
G01X23009Y23413D01*
G01X23812Y23413D01*
G01X23812Y22560D01*
G01X23009Y22560D01*
G37*
G54D41*
G01X26670Y11684D03*
G54D37*
G01X14902Y21717D03*
G01X14053Y21717D03*
G54D42*
G01X6755Y25781D03*
G01X9755Y25781D03*
G36*
G01X16591Y19834D02*
G01X16591Y20637D01*
G01X17444Y20637D01*
G01X17444Y19834D01*
G01X16591Y19834D01*
G37*
G36*
G01X16591Y18986D02*
G01X16591Y19789D01*
G01X17444Y19789D01*
G01X17444Y18986D01*
G01X16591Y18986D01*
G37*
G54D37*
G01X15156Y18923D03*
G01X14307Y18923D03*
G54D43*
G01X9017Y4953D03*
G01X9017Y3352D03*
G01X9017Y1752D03*
G01X14478Y4953D03*
G01X14478Y3352D03*
G01X14478Y1752D03*
G36*
G01X12329Y26855D02*
G01X12329Y28359D01*
G01X13832Y28359D01*
G01X13832Y26855D01*
G01X12329Y26855D01*
G37*
G36*
G01X12329Y23456D02*
G01X12329Y24960D01*
G01X13832Y24960D01*
G01X13832Y23456D01*
G01X12329Y23456D01*
G37*
G36*
G01X16393Y26601D02*
G01X16393Y28105D01*
G01X17896Y28105D01*
G01X17896Y26601D01*
G01X16393Y26601D01*
G37*
G36*
G01X16393Y23202D02*
G01X16393Y24706D01*
G01X17896Y24706D01*
G01X17896Y23202D01*
G01X16393Y23202D01*
G37*
G36*
G01X12192Y30353D02*
G01X12192Y32131D01*
G01X13970Y32131D01*
G01X13970Y30353D01*
G01X12192Y30353D01*
G37*
G36*
G01X19738Y25227D02*
G01X19738Y26588D01*
G01X21409Y26588D01*
G01X21409Y25227D01*
G01X19738Y25227D01*
G37*
G36*
G01X16510Y30353D02*
G01X16510Y32131D01*
G01X18288Y32131D01*
G01X18288Y30353D01*
G01X16510Y30353D01*
G37*
G36*
G01X1651Y25654D02*
G01X1651Y27432D01*
G01X3429Y27432D01*
G01X3429Y25654D01*
G01X1651Y25654D01*
G37*
G36*
G01X1651Y20701D02*
G01X1651Y22479D01*
G01X3429Y22479D01*
G01X3429Y20701D01*
G01X1651Y20701D01*
G37*
G36*
G01X1651Y15748D02*
G01X1651Y17526D01*
G01X3429Y17526D01*
G01X3429Y15748D01*
G01X1651Y15748D01*
G37*
G36*
G01X1651Y10668D02*
G01X1651Y12446D01*
G01X3429Y12446D01*
G01X3429Y10668D01*
G01X1651Y10668D01*
G37*
G36*
G01X1651Y5842D02*
G01X1651Y7620D01*
G01X3429Y7620D01*
G01X3429Y5842D01*
G01X1651Y5842D01*
G37*
M00*
M02*
